<svg xmlns="http://www.w3.org/2000/svg" viewBox="0 0 151 151"><defs><style>.cls-1{fill:#312783;}.cls-2{fill:none;stroke:#1d1d1b;}.cls-3{fill:#242651;}.cls-4{fill:#fcbf3a;}</style></defs><g id="Capa_2" data-name="Capa 2"><g id="Original"><rect class="cls-1" x="0.5" y="0.5" width="150" height="150" rx="75"/><rect class="cls-1" x="0.5" y="0.5" width="150" height="150" rx="75"/><rect class="cls-2" x="0.5" y="0.5" width="150" height="150" rx="75"/><rect class="cls-3" x="0.5" y="0.5" width="150" height="150" rx="75"/><path class="cls-4" d="M113,35.5H53.51c-8.21,0-13.93,6.65-16.24,14a46.78,46.78,0,0,0-1.75,15.12A39.5,39.5,0,0,0,38,78.41C40.16,83.63,44,88.1,49.45,89.86a21.69,21.69,0,0,0,6.86.64H75.92a2.54,2.54,0,0,0,2.5-2.5V63a2.54,2.54,0,0,0-2.5-2.5H57c-3.22,0-3.22,5,0,5h19L73.42,63V88l2.5-2.5H53.83c-.24,0-.49,0-.73,0h-.3l-.25,0c-.61,0,.27-.08.26,0s-1.69-.37-1.82-.41c-.35-.1-.69-.24-1-.36s.55.28-.1,0l-.67-.33a14.25,14.25,0,0,1-1.25-.75l-.64-.45c.6.44-.25-.22-.4-.35a15.08,15.08,0,0,1-1.21-1.19l-.62-.73c-.25-.31.35.48,0-.05l-.36-.5a22.94,22.94,0,0,1-3.61-9.73,46.86,46.86,0,0,1-.07-15,31.69,31.69,0,0,1,1.54-6.08,11.39,11.39,0,0,1,.78-1.8,19.35,19.35,0,0,1,1.16-2l.58-.84c.38-.52-.22.27,0,0,.11-.12.2-.25.31-.37a14.93,14.93,0,0,1,1.3-1.34c.2-.19.42-.36.63-.54.4-.35-.38.24.24-.18.42-.28.84-.56,1.29-.8l.59-.31c.19-.09.92-.36.09-.06.38-.13.74-.28,1.12-.4a15.07,15.07,0,0,0,1.74-.4c-.06.19-.81.07-.3,0l.25,0,.32,0H53c9.7-.08,19.42,0,29.12,0H113c3.22,0,3.22-5,0-5Z"/><path class="cls-4" d="M38,115.5H97.49c8.21,0,13.93-6.65,16.24-14a46.78,46.78,0,0,0,1.75-15.12A39.5,39.5,0,0,0,113,72.59c-2.13-5.22-5.92-9.69-11.42-11.45a21.69,21.69,0,0,0-6.86-.64H75.08a2.54,2.54,0,0,0-2.5,2.5V88a2.54,2.54,0,0,0,2.5,2.5H94c3.22,0,3.22-5,0-5h-19l2.5,2.5V63l-2.5,2.5H97.17c.24,0,.49,0,.73,0h.3l.25,0c.61,0-.27.08-.26,0s1.69.37,1.82.41c.35.1.69.24,1,.36s-.55-.28.1,0l.67.33a14.25,14.25,0,0,1,1.25.75l.64.45c-.6-.44.25.22.4.35a15.08,15.08,0,0,1,1.21,1.19l.62.73c.25.31-.35-.48,0,.05l.36.5a22.94,22.94,0,0,1,3.61,9.73,46.86,46.86,0,0,1,.07,15,31.69,31.69,0,0,1-1.54,6.08,11.39,11.39,0,0,1-.78,1.8,19.35,19.35,0,0,1-1.16,2l-.58.84c-.38.52.22-.27,0,0-.11.12-.2.25-.31.37a14.93,14.93,0,0,1-1.3,1.34c-.2.19-.42.36-.63.54-.4.35.38-.24-.24.18-.42.28-.84.56-1.29.8l-.59.31c-.19.09-.92.36-.09.06-.38.13-.74.28-1.12.4a15.07,15.07,0,0,0-1.74.4c.06-.19.81-.07.3-.05l-.25,0-.32,0H98c-9.7.08-19.42,0-29.12,0H38c-3.22,0-3.22,5,0,5Z"/></g></g></svg>