<svg xmlns="http://www.w3.org/2000/svg" viewBox="0 0 80.01 80"><defs><style>.cls-1{fill:#fcbf3a;}</style></defs><g id="Capa_2" data-name="Capa 2"><g id="Original"><path class="cls-1" d="M77.5,0H18C9.81,0,4.08,6.65,1.77,14.05A46.77,46.77,0,0,0,0,29.17,39,39,0,0,0,2.54,42.91C4.67,48.13,8.45,52.6,14,54.36a21.69,21.69,0,0,0,6.86.64h19.6a2.53,2.53,0,0,0,2.5-2.5v-25a2.53,2.53,0,0,0-2.5-2.5h-19c-3.21,0-3.22,5,0,5h19l-2.5-2.5v25l2.5-2.5H17.3l-.25,0c-.6,0,.27-.08.27,0s-1.7-.37-1.83-.41c-.35-.1-.68-.24-1-.36s.56.28-.1,0l-.67-.33a14.25,14.25,0,0,1-1.25-.75l-.64-.45c.61.44-.25-.22-.39-.35a13.59,13.59,0,0,1-1.21-1.19c-.22-.24-.42-.49-.63-.73s.35.48,0,0c-.12-.17-.25-.33-.36-.5a23,23,0,0,1-3.62-9.73,47.16,47.16,0,0,1-.07-14.95A32.45,32.45,0,0,1,7,14.09a11.39,11.39,0,0,1,.78-1.8,19.35,19.35,0,0,1,1.16-2l.59-.84c.38-.52-.23.27,0,0L9.89,9a16.45,16.45,0,0,1,1.3-1.34l.63-.54c.41-.35-.37.24.25-.18.42-.28.84-.56,1.28-.8l.6-.31c.18-.09.91-.36.09-.06.37-.13.73-.28,1.11-.4A15.07,15.07,0,0,0,16.89,5c-.06.19-.81.07-.29,0l.24,0,.33,0h.32c9.71-.08,19.42,0,29.13,0H77.5c3.22,0,3.23-5,0-5Z"/><path class="cls-1" d="M2.5,80H62c8.21,0,13.94-6.65,16.25-14A46.77,46.77,0,0,0,80,50.83a39.28,39.28,0,0,0-2.51-13.74c-2.13-5.22-5.92-9.69-11.42-11.45A21.69,21.69,0,0,0,59.19,25H39.58a2.54,2.54,0,0,0-2.5,2.5v25a2.54,2.54,0,0,0,2.5,2.5h19c3.22,0,3.23-5,0-5h-19l2.5,2.5v-25L39.58,30H61.67c.25,0,.49,0,.74,0h.3L63,30c.61,0-.26.08-.26,0s1.7.37,1.83.41c.34.1.68.24,1,.36s-.56-.28.1,0l.66.33a14.43,14.43,0,0,1,1.26.75l.64.45c-.61-.44.25.22.39.35a13.59,13.59,0,0,1,1.21,1.19c.22.24.42.49.62.73s-.34-.48,0,0l.36.5a23,23,0,0,1,3.62,9.73,46.86,46.86,0,0,1,.06,14.95A31.67,31.67,0,0,1,73,65.91a12.39,12.39,0,0,1-.78,1.8,21.31,21.31,0,0,1-1.16,2l-.59.84c-.38.52.22-.27,0,0l-.3.37a15,15,0,0,1-1.31,1.34c-.2.19-.42.36-.62.54-.41.35.37-.24-.25.18-.42.28-.84.56-1.29.8-.19.11-.39.21-.59.31s-.92.36-.09.06c-.37.13-.74.28-1.12.4a15.37,15.37,0,0,0-1.73.4c.06-.19.8-.07.29-.05l-.24,0-.33,0h-.32c-9.71.08-19.42,0-29.13,0H2.5c-3.21,0-3.22,5,0,5Z"/></g></g></svg>